<svg xmlns="http://www.w3.org/2000/svg" xmlns:xlink="http://www.w3.org/1999/xlink" id="Layer_1" x="0px" y="0px" viewBox="0 0 975.94 305.16" style="enable-background:new 0 0 975.94 305.16;" xml:space="preserve"><style type="text/css">	.st0{fill:#FFFFFF;}	.st1{fill:#021126;}	.st2{fill:url(#SVGID_1_);}	.st3{fill:url(#SVGID_00000138574578489459997950000005301678616902040251_);}	.st4{fill:url(#SVGID_00000091705776139400935560000008503749221748092035_);}	.st5{fill:url(#SVGID_00000010990893520739555370000018316138087162532781_);}	.st6{fill:url(#SVGID_00000015332578747320159920000016712769199263614865_);}	.st7{fill:url(#SVGID_00000052086607883108762910000016941358596236536502_);}</style><g>	<polygon class="st1" points="222.96,0.21 165.45,0.21 165.45,165.31 57.51,57.37 23.53,23.39 23.43,23.49 0,0.21 0,305.16   57.51,305.16 57.51,138.71 57.51,138.71 165.45,246.66 222.95,305.16 222.96,253.35 222.96,253.34 222.96,222.82 222.96,222.82    "></polygon>	<linearGradient id="SVGID_1_" gradientUnits="userSpaceOnUse" x1="243.846" y1="152.6881" x2="420.5476" y2="152.6881">		<stop offset="0" style="stop-color:#2541B2"></stop>		<stop offset="0.1848" style="stop-color:#2346B5"></stop>		<stop offset="0.3899" style="stop-color:#1E53BF"></stop>		<stop offset="0.6048" style="stop-color:#1669CF"></stop>		<stop offset="0.8249" style="stop-color:#0B88E5"></stop>		<stop offset="1" style="stop-color:#00A6FB"></stop>	</linearGradient>	<polygon class="st2" points="420.55,152.17 385.49,202.45 313.95,305.12 243.85,305.16 350.43,152.17 244.54,0.22 314.64,0.21   385.49,101.89  "></polygon>	<polygon class="st1" points="437.75,175.97 527.77,305.16 457.67,305.16 402.71,226.28  "></polygon>	<polygon class="st1" points="437.13,130.29 527.77,0.22 457.68,0.22 402.09,79.98  "></polygon>	<polygon class="st1" points="776.91,0.22 832.8,109.26 840.51,122.29 848.41,109.01 904.26,0 975.94,0.08 876.71,167.47   869.43,179.43 869.43,305.37 811.78,305.37 811.78,179.77 804.3,167.47 739.27,57.75  "></polygon>	<polygon class="st1" points="548.64,0.22 548.64,305.15 606.17,305.15 606.17,181.43 681.46,181.4 717.89,123.9 606.17,123.94   606.17,57.73 718.02,57.73 729,40.41 754.42,0.28 754.45,0.22  "></polygon></g></svg>